<?xml version="1.0" encoding="UTF-8" standalone="no"?>
<svg
   xmlns:dc="http://purl.org/dc/elements/1.1/"
   xmlns:cc="http://creativecommons.org/ns#"
   xmlns:rdf="http://www.w3.org/1999/02/22-rdf-syntax-ns#"
   xmlns:svg="http://www.w3.org/2000/svg"
   xmlns="http://www.w3.org/2000/svg"
   xmlns:sodipodi="http://sodipodi.sourceforge.net/DTD/sodipodi-0.dtd"
   xmlns:inkscape="http://www.inkscape.org/namespaces/inkscape"
   version="1.1"
   id="Layer_1"
   x="0px"
   y="0px"
   viewBox="0 0 490.2 490.2"
   style="enable-background:new 0 0 490.2 490.2;"
   xml:space="preserve"
   sodipodi:docname="radio-icon-2.svg"
   inkscape:version="1.0.1 (3bc2e813f5, 2020-09-07)"><metadata
   id="metadata49"><rdf:RDF><cc:Work
       rdf:about=""><dc:format>image/svg+xml</dc:format><dc:type
         rdf:resource="http://purl.org/dc/dcmitype/StillImage" /></cc:Work></rdf:RDF></metadata><defs
   id="defs47" /><sodipodi:namedview
   pagecolor="#ffffff"
   bordercolor="#666666"
   borderopacity="1"
   objecttolerance="10"
   gridtolerance="10"
   guidetolerance="10"
   inkscape:pageopacity="0"
   inkscape:pageshadow="2"
   inkscape:window-width="1731"
   inkscape:window-height="972"
   id="namedview45"
   showgrid="false"
   inkscape:zoom="1.6931864"
   inkscape:cx="245.10001"
   inkscape:cy="245.10001"
   inkscape:window-x="0"
   inkscape:window-y="0"
   inkscape:window-maximized="0"
   inkscape:current-layer="g12" />
<g
   id="g12">
	<g
   id="g10"
   style="fill:#f34508;fill-opacity:1">
		<path
   d="M490.079,454.2V176.7c0-18.1-13-32.8-30.4-35.4l-340.2-112.8c-3.3-16.4-17.6-28.5-35.1-28.5c-20,0-35.8,15.8-35.8,35.8    s15.8,35.8,35.8,35.8c6.7,0,13.1-2,18.6-5.4l225.5,74.8h-292.6c-20,0-35.8,15.8-35.8,35.8v277.6c0,20,15.8,35.8,35.8,35.8h419.4    C474.179,490,491.079,473.2,490.079,454.2z M449.979,449h-408.8V181.9h408.8V449z"
   id="path2"
   style="fill:#f34508;fill-opacity:1" />
		<path
   d="M340.379,402.7c46.4,0,84.3-37.9,83.2-83.1c0-45.2-36.9-83.1-83.2-83.1c-45.3,0-83.2,36.8-83.2,83.1    C257.179,364.9,294.079,402.7,340.379,402.7z M340.379,276.5c24.2,0,43.2,18.9,43.2,43.1s-19,43.1-43.2,43.1s-43.2-18.9-43.2-43.1    C297.179,295.5,317.279,276.5,340.379,276.5z"
   id="path4"
   style="fill:#f34508;fill-opacity:1" />
		<path
   d="M86.479,273.4h118c11.6,0,21.1-9.5,21.1-20c0-10.5-8.4-20-20-20h-119.1c-10.5,0-20,8.4-20,20    C66.479,263.9,74.879,273.4,86.479,273.4z"
   id="path6"
   style="fill:#f34508;fill-opacity:1" />
		<path
   d="M86.479,397.5h118c11.6,0,21.1-8.4,21.1-20c0-10.5-8.4-20-20-20h-119.1c-10.5,0-20,8.4-20,20    C66.479,388,74.879,397.5,86.479,397.5z"
   id="path8"
   style="fill:#f34508;fill-opacity:1" />
	</g>
</g>
<g
   id="g14">
</g>
<g
   id="g16">
</g>
<g
   id="g18">
</g>
<g
   id="g20">
</g>
<g
   id="g22">
</g>
<g
   id="g24">
</g>
<g
   id="g26">
</g>
<g
   id="g28">
</g>
<g
   id="g30">
</g>
<g
   id="g32">
</g>
<g
   id="g34">
</g>
<g
   id="g36">
</g>
<g
   id="g38">
</g>
<g
   id="g40">
</g>
<g
   id="g42">
</g>
</svg>
