<?xml version="1.0" encoding="UTF-8" standalone="no"?>
<svg
   xmlns:dc="http://purl.org/dc/elements/1.1/"
   xmlns:cc="http://creativecommons.org/ns#"
   xmlns:rdf="http://www.w3.org/1999/02/22-rdf-syntax-ns#"
   xmlns:svg="http://www.w3.org/2000/svg"
   xmlns="http://www.w3.org/2000/svg"
   xmlns:sodipodi="http://sodipodi.sourceforge.net/DTD/sodipodi-0.dtd"
   xmlns:inkscape="http://www.inkscape.org/namespaces/inkscape"
   version="1.1"
   id="Layer_1"
   x="0px"
   y="0px"
   viewBox="0 0 502 502"
   style="enable-background:new 0 0 502 502;"
   xml:space="preserve"
   sodipodi:docname="radio-icon.svg"
   inkscape:version="1.0.1 (3bc2e813f5, 2020-09-07)"><metadata
   id="metadata55"><rdf:RDF><cc:Work
       rdf:about=""><dc:format>image/svg+xml</dc:format><dc:type
         rdf:resource="http://purl.org/dc/dcmitype/StillImage" /></cc:Work></rdf:RDF></metadata><defs
   id="defs53" /><sodipodi:namedview
   pagecolor="#ffffff"
   bordercolor="#666666"
   borderopacity="1"
   objecttolerance="10"
   gridtolerance="10"
   guidetolerance="10"
   inkscape:pageopacity="0"
   inkscape:pageshadow="2"
   inkscape:window-width="2027"
   inkscape:window-height="1005"
   id="namedview51"
   showgrid="false"
   inkscape:zoom="1.6533865"
   inkscape:cx="251"
   inkscape:cy="299.38554"
   inkscape:window-x="0"
   inkscape:window-y="0"
   inkscape:window-maximized="0"
   inkscape:current-layer="g18" />
<g
   id="g18">
	<g
   id="g16"
   style="fill:#f34508;fill-opacity:1">
		<g
   id="g14"
   style="fill:#f34508;fill-opacity:1">
			<path
   d="M393,151H178.748c-0.975-3.826-2.499-7.434-4.479-10.74l212.028-74.041c5.214-1.821,7.965-7.523,6.144-12.738     c-1.821-5.214-7.524-7.965-12.738-6.144l-221.974,77.515c-5.483-2.777-11.674-4.352-18.229-4.352     c-19.009,0-34.993,13.168-39.331,30.859C44.18,155.87,0,202.87,0,260v120c0,60.103,48.897,109,109,109h284     c60.103,0,109-48.897,109-109V260C502,199.897,453.103,151,393,151z M139.5,140.5c7.675,0,14.378,4.24,17.892,10.5h-35.783     C125.122,144.74,131.825,140.5,139.5,140.5z M482,380c0,49.075-39.925,89-89,89H109c-49.075,0-89-39.925-89-89V260     c0-49.075,39.925-89,89-89h284c49.075,0,89,39.925,89,89V380z"
   id="path2"
   style="fill:#f34508;fill-opacity:1" />
			<path
   d="M332,192c-70.58,0-128,57.42-128,128s57.42,128,128,128s128-57.42,128-128S402.58,192,332,192z M332,428     c-33.337,0-63.192-15.186-83.018-39h166.036C395.192,412.814,365.337,428,332,428z M428.229,369H235.771     c-6.23-12.185-10.207-25.702-11.393-40H413c5.523,0,10-4.477,10-10s-4.477-10-10-10H224.556c1.458-14.343,5.737-27.863,12.267-40     H344c5.523,0,10-4.477,10-10s-4.477-10-10-10h-93.311c19.812-22.661,48.917-37,81.311-37c59.551,0,108,48.449,108,108     C440,337.63,435.753,354.285,428.229,369z"
   id="path4"
   style="fill:#f34508;fill-opacity:1" />
			<path
   d="M386,249h-7c-5.523,0-10,4.477-10,10s4.477,10,10,10h7c5.523,0,10-4.477,10-10S391.523,249,386,249z"
   id="path6"
   style="fill:#f34508;fill-opacity:1" />
			<path
   d="M97.5,240C79.58,240,65,254.58,65,272.5S79.58,305,97.5,305s32.5-14.58,32.5-32.5C130,254.58,115.42,240,97.5,240z      M97.5,285c-6.893,0-12.5-5.607-12.5-12.5S90.607,260,97.5,260s12.5,5.607,12.5,12.5S104.393,285,97.5,285z"
   id="path8"
   style="fill:#f34508;fill-opacity:1" />
			<path
   d="M97.5,335C79.58,335,65,349.58,65,367.5c0,17.92,14.58,32.5,32.5,32.5s32.5-14.58,32.5-32.5     C130,349.58,115.42,335,97.5,335z M97.5,380c-6.893,0-12.5-5.607-12.5-12.5S90.607,355,97.5,355s12.5,5.607,12.5,12.5     S104.393,380,97.5,380z"
   id="path10"
   style="fill:#f34508;fill-opacity:1" />
			<path
   d="M428.5,68c15.164,0,27.5-12.336,27.5-27.5S443.664,13,428.5,13S401,25.336,401,40.5S413.336,68,428.5,68z M428.5,33     c4.136,0,7.5,3.364,7.5,7.5s-3.364,7.5-7.5,7.5s-7.5-3.364-7.5-7.5S424.364,33,428.5,33z"
   id="path12"
   style="fill:#f34508;fill-opacity:1" />
		</g>
	</g>
</g>
<g
   id="g20">
</g>
<g
   id="g22">
</g>
<g
   id="g24">
</g>
<g
   id="g26">
</g>
<g
   id="g28">
</g>
<g
   id="g30">
</g>
<g
   id="g32">
</g>
<g
   id="g34">
</g>
<g
   id="g36">
</g>
<g
   id="g38">
</g>
<g
   id="g40">
</g>
<g
   id="g42">
</g>
<g
   id="g44">
</g>
<g
   id="g46">
</g>
<g
   id="g48">
</g>
</svg>
